<?xml version="1.0" standalone="no"?><!DOCTYPE svg PUBLIC "-//W3C//DTD SVG 1.1//EN" "http://www.w3.org/Graphics/SVG/1.1/DTD/svg11.dtd"><svg t="1782225982447" class="icon" viewBox="0 0 1024 1024" version="1.1" xmlns="http://www.w3.org/2000/svg" p-id="9184" xmlns:xlink="http://www.w3.org/1999/xlink" width="200" height="200"><path d="M853.0944 0.2048H355.6352c-78.5408 0-142.0288 63.6928-142.0288 142.1312h639.5904v639.6928c78.4384 0 142.1312-63.6928 142.1312-142.1312V142.336C995.328 63.8976 931.6352 0.2048 853.0944 0.2048z" fill="#ffffff" p-id="9185"></path><path d="M639.8976 213.4016H142.336c-78.5408 0-142.1312 63.6928-142.1312 142.1312v497.664c0 78.4384 63.6928 142.0288 142.1312 142.0288H640c78.5408 0 142.1312-63.6928 142.1312-142.1312V355.6352c0-78.5408-63.6928-142.2336-142.336-142.2336z m14.336 654.1312H142.5408V355.6352h512v512H654.336z" fill="#ffffff" p-id="9186"></path><path d="M531.8656 656.384h-102.4v102.5024a44.7488 44.7488 0 0 1-89.1904 0V656.384H237.056a44.7488 44.7488 0 0 1-44.544-44.544c0-24.576 19.968-44.6464 44.544-44.6464h102.5024V464.0768a44.7488 44.7488 0 0 1 89.1904 0v102.5024H531.456a45.056 45.056 0 0 1 45.056 45.2608c0 24.4736-19.968 44.544-44.544 44.544z" fill="#ffffff" p-id="9187"></path></svg>