<?xml version="1.0" standalone="no"?><!DOCTYPE svg PUBLIC "-//W3C//DTD SVG 1.1//EN" "http://www.w3.org/Graphics/SVG/1.1/DTD/svg11.dtd"><svg t="1782097168668" class="icon" viewBox="0 0 1024 1024" version="1.1" xmlns="http://www.w3.org/2000/svg" p-id="4345" xmlns:xlink="http://www.w3.org/1999/xlink" width="200" height="200"><path d="M240 400.016a48.048 48.048 0 0 0 48 48.112h64V448h288v0.128h64c26.512 0 48-21.536 48-48.112V16H240v384.016zM512 80h144v304h-144V80z m497.936 94.064l-144-144A47.824 47.824 0 0 0 832 16h-32V400.016c0 52.352-41.76 94.72-93.696 95.984H285.696A95.984 95.984 0 0 1 192 400.016V16H48a48 48 0 0 0-48 48v896a48 48 0 0 0 48 48h928a48 48 0 0 0 48-48V208a47.84 47.84 0 0 0-14.064-33.936z" p-id="4346"></path></svg>