<?xml version="1.0" standalone="no"?><!DOCTYPE svg PUBLIC "-//W3C//DTD SVG 1.1//EN" "http://www.w3.org/Graphics/SVG/1.1/DTD/svg11.dtd"><svg t="1782641822454" class="icon" viewBox="0 0 1024 1024" version="1.1" xmlns="http://www.w3.org/2000/svg" p-id="12608" xmlns:xlink="http://www.w3.org/1999/xlink" width="200" height="200"><path d="M511.33 90.22c-233.06 0-422 188.94-422 422s188.94 422 422 422 422-188.93 422-422-188.93-422-422-422zM724.51 408l-240 240a44.13 44.13 0 0 1-62.22 0L302.15 527.73a44.13 44.13 0 0 1 0-62.22 44.12 44.12 0 0 1 62.23 0l89.06 89.06 208.85-208.85a44.13 44.13 0 0 1 62.22 0 44.14 44.14 0 0 1 0 62.28z" fill="#0773FC" p-id="12609"></path></svg>