<?xml version="1.0" standalone="no"?><!DOCTYPE svg PUBLIC "-//W3C//DTD SVG 1.1//EN" "http://www.w3.org/Graphics/SVG/1.1/DTD/svg11.dtd"><svg t="1782092288700" class="icon" viewBox="0 0 1316 1024" version="1.1" xmlns="http://www.w3.org/2000/svg" p-id="2374" xmlns:xlink="http://www.w3.org/1999/xlink" width="257.03125" height="200"><path d="M1307.428571 459.995429c5.705143 2.852571 9.142857 9.142857 9.142858 15.433142s-3.437714 12.580571-9.142858 15.433143l-182.857142 109.714286a17.188571 17.188571 0 0 1-9.142858 2.852571 18.066286 18.066286 0 0 1-9.142857-2.304 18.285714 18.285714 0 0 1-9.142857-16.018285v-73.142857H606.866286c18.285714 28.562286 33.718857 62.281143 47.433143 94.281142 27.428571 61.696 55.442286 125.147429 95.414857 125.147429H804.571429v-54.857143c0-10.276571 8.009143-18.285714 18.285714-18.285714h182.857143c10.276571 0 18.285714 8.009143 18.285714 18.285714v182.857143c0 10.276571-8.009143 18.285714-18.285714 18.285714h-182.857143a18.066286 18.066286 0 0 1-18.285714-18.285714v-54.857143h-54.857143c-87.442286 0-126.866286-89.709714-162.304-168.557714-26.843429-61.147429-54.857143-124.013714-93.696-124.013714H288c-16.566857 62.866286-73.728 109.714286-141.714286 109.714285-80.566857 0-146.285714-65.718857-146.285714-146.285714s65.718857-146.285714 146.285714-146.285714c67.986286 0 125.147429 46.848 141.714286 109.714285H347.428571c38.838857 0 66.852571-62.866286 93.696-124.013714 35.437714-78.848 74.861714-168.557714 162.304-168.557714h61.147429a109.531429 109.531429 0 0 1 103.424-73.142857 109.750857 109.750857 0 0 1 0 219.428571 109.494857 109.494857 0 0 1-103.424-73.142857H603.428571c-40.009143 0-67.986286 63.414857-95.414857 125.147429-13.714286 32-29.147429 65.718857-47.433143 94.281142H1097.142857v-73.142857c0-6.838857 3.437714-12.580571 9.142857-16.018285s13.129143-2.852571 18.285715 0.585142z" fill="" p-id="2375"></path></svg>